HIERARCHY
ROOT Hips
{
	OFFSET 0.00 0.00 0.00
	CHANNELS 6 Xposition Yposition Zposition Yrotation Xrotation Zrotation
	JOINT LHipJoint
	{
		OFFSET	0.0000	0.0000	0.0000
		CHANNELS 3 Yrotation Xrotation Zrotation
		JOINT LeftUpLeg
		{
			OFFSET	1.0138	-0.0809	-0.0827
			CHANNELS 3 Yrotation Xrotation Zrotation
			JOINT LeftLeg
			{
				OFFSET	0.4110	-3.9095	0.3245
				CHANNELS 3 Yrotation Xrotation Zrotation
				JOINT LeftFoot
				{
					OFFSET	0.3810	-4.0555	-0.1470
					CHANNELS 3 Yrotation Xrotation Zrotation
					JOINT LeftToeBase
					{
						OFFSET	0.1396	-0.4462	1.3079
						CHANNELS 3 Yrotation Xrotation Zrotation
						End Site
						{
							OFFSET 0.0161 -0.0248 0.1809
						}
					}
				}
			}
		}
	}
	JOINT LowerBack
	{
		OFFSET	0.0000	0.7977	-0.3873
		CHANNELS 3 Yrotation Xrotation Zrotation
		JOINT Spine
		{
			OFFSET	0.0000	1.4131	0.1715
			CHANNELS 3 Yrotation Xrotation Zrotation
			JOINT Spine1
			{
				OFFSET	0.0000	1.4392	-0.1032
				CHANNELS 3 Yrotation Xrotation Zrotation
				JOINT LeftShoulder
				{
					OFFSET	0.2274	1.0382	0.4032
					CHANNELS 3 Yrotation Xrotation Zrotation
					JOINT LeftArm
					{
						OFFSET	1.4730	-0.2267	-0.0231
						CHANNELS 3 Yrotation Xrotation Zrotation
						JOINT LeftForeArm
						{
							OFFSET	1.6131	-1.8059	0.0081
							CHANNELS 3 Yrotation Xrotation Zrotation
							JOINT LeftHand
							{
								OFFSET	1.2197	-1.2423	1.6317
								CHANNELS 3 Yrotation Xrotation Zrotation
								JOINT LThumb
								{
									OFFSET	0.0109	-0.0753	0.4387
									CHANNELS 3 Yrotation Xrotation Zrotation
									End Site
									{
										OFFSET -0.2090 -0.0868 0.2097
									}
								}
								JOINT LeftFingerBase
								{
									OFFSET	0.1071	-0.1567	0.2607
									CHANNELS 3 Yrotation Xrotation Zrotation
									JOINT LeftHandFinger1
									{
										OFFSET	0.1706	-0.2492	0.6830
										CHANNELS 3 Yrotation Xrotation Zrotation
										End Site
										{
											OFFSET 0.0335 -0.1507 0.2071
										}
									}
								}
							}
						}
					}
				}
				JOINT Neck
				{
					OFFSET	0.0000	1.7498	0.2381
					CHANNELS 3 Yrotation Xrotation Zrotation
					JOINT Neck1
					{
						OFFSET	0.0000	0.5043	0.1959
						CHANNELS 3 Yrotation Xrotation Zrotation
						JOINT Head
						{
							OFFSET	0.0000	0.5044	0.1959
							CHANNELS 3 Yrotation Xrotation Zrotation
							End Site
							{
								OFFSET 0.0000 1.4798 -0.0693
							}
						}
					}
				}
				JOINT RightShoulder
				{
					OFFSET	-0.2274	1.0382	0.4032
					CHANNELS 3 Yrotation Xrotation Zrotation
					JOINT RightArm
					{
						OFFSET	-1.4730	-0.2267	-0.0231
						CHANNELS 3 Yrotation Xrotation Zrotation
						JOINT RightForeArm
						{
							OFFSET	-1.6131	-1.8059	0.0081
							CHANNELS 3 Yrotation Xrotation Zrotation
							JOINT RightHand
							{
								OFFSET	-1.2197	-1.2423	1.6317
								CHANNELS 3 Yrotation Xrotation Zrotation
								JOINT RThumb
								{
									OFFSET	-0.0109	-0.0753	0.4387
									CHANNELS 3 Yrotation Xrotation Zrotation
									End Site
									{
										OFFSET 0.2090 -0.0868 0.2097
									}
								}
								JOINT RightFingerBase
								{
									OFFSET	-0.1071	-0.1567	0.2607
									CHANNELS 3 Yrotation Xrotation Zrotation
									JOINT RightHandFinger1
									{
										OFFSET	-0.1706	-0.2492	0.6830
										CHANNELS 3 Yrotation Xrotation Zrotation
										End Site
										{
											OFFSET -0.0335 -0.1507 0.2071
										}
									}
								}
							}
						}
					}
				}
			}
		}
	}
	JOINT RHipJoint
	{
		OFFSET	0.0000	0.0000	0.0000
		CHANNELS 3 Yrotation Xrotation Zrotation
		JOINT RightUpLeg
		{
			OFFSET	-1.0138	-0.0809	-0.0827
			CHANNELS 3 Yrotation Xrotation Zrotation
			JOINT RightLeg
			{
				OFFSET	-0.4110	-3.9095	0.3245
				CHANNELS 3 Yrotation Xrotation Zrotation
				JOINT RightFoot
				{
					OFFSET	-0.3810	-4.0555	-0.1470
					CHANNELS 3 Yrotation Xrotation Zrotation
					JOINT RightToeBase
					{
						OFFSET	-0.1396	-0.4462	1.3079
						CHANNELS 3 Yrotation Xrotation Zrotation
						End Site
						{
							OFFSET -0.0161 -0.0248 0.1809
						}
					}
				}
			}
		}
	}
}
MOTION
Frames: 8
Frame Time: 0.0333333
0.0072 8.4385 0.1769 -5.7634 -6.3601 1.8621 0.0000 -0.0000 0.0000 22.2650 0.1523 -0.7299 7.0897 22.8242 4.5545 -0.0080 -16.6078 -2.1621 0.0000 -0.0180 0.0000 0.0000 -0.0000 0.0000 0.8305 4.1422 -0.2297 1.6430 8.2847 -0.2845 4.3632 0.5625 -1.5409 -77.2219 3.5576 -11.1878 24.4930 25.9629 3.5132 18.9274 -9.6604 -22.3710 28.0808 5.0708 13.2274 -7.5293 23.2568 -11.8577 -5.4422 -4.5981 -1.7883 3.2459 -8.3364 -1.7075 3.2459 -8.3364 -1.7075 10.6752 -2.7495 -0.5936 -0.1115 1.2136 1.5780 44.5118 -4.9695 12.6575 -14.9925 17.2801 -0.1648 -11.3563 15.1808 12.3708 -40.8254 2.0354 -11.4687 -1.8728 15.4701 3.6611 -1.6536 -13.5631 -3.7557 0.0000 -0.0000 0.0000 -26.9664 -5.3824 -1.6021 3.5976 28.6974 -0.8046 1.4106 -18.2819 -1.9921 0.0000 -0.0334 0.0000 
0.0239 8.4372 0.1686 -6.9344 -6.3730 1.7408 0.0000 -0.0000 0.0000 22.9489 0.1942 -0.7139 7.6752 22.8905 4.9215 0.0270 -16.8028 -2.2903 -0.0000 -0.0402 -0.0000 0.0000 -0.0000 0.0000 0.5268 4.0659 -0.1675 1.0395 8.1316 -0.1911 4.6332 0.5558 -1.6555 -77.0540 3.7832 -11.7550 24.5817 26.0365 3.5506 19.3576 -9.5444 -22.6411 28.0814 5.0672 13.2280 -7.5248 23.2538 -11.8538 -5.4406 -4.6000 -1.7870 3.5867 -8.2321 -1.8295 3.5867 -8.2321 -1.8295 11.8620 -2.2446 -0.5972 -0.1682 1.1954 1.5560 44.9601 -5.5796 13.0373 -15.4148 17.6976 -0.2837 -11.5816 13.8368 13.3323 -40.8254 2.0354 -11.4687 -1.8727 15.4701 3.6612 -1.6535 -13.5631 -3.7557 0.0000 -0.0000 0.0000 -26.3810 -5.5980 -1.4863 4.0662 28.7712 -0.5894 1.7296 -18.0036 -2.1440 -0.0000 -0.0320 0.0000 
0.0412 8.4361 0.1623 -8.1769 -6.4181 1.6151 0.0000 -0.0000 0.0000 23.7175 0.2914 -0.6885 8.2937 22.9192 5.3397 0.0331 -17.0015 -2.4457 0.0000 -0.0560 0.0000 0.0000 -0.0000 0.0000 0.1685 3.9871 -0.1102 0.3262 7.9741 -0.1104 4.9486 0.5496 -1.7815 -76.7707 4.1192 -12.3929 24.6415 26.0862 3.5759 19.8144 -9.4564 -22.9411 28.0796 5.0733 13.2269 -7.5213 23.2513 -11.8506 -5.4401 -4.6005 -1.7866 3.9648 -8.0735 -1.9583 3.9648 -8.0734 -1.9583 13.1878 -1.7566 -0.5772 -0.2254 1.1767 1.5343 45.5459 -6.2241 13.3395 -15.8830 18.1574 -0.4192 -11.6768 12.5150 14.3675 -40.8254 2.0354 -11.4687 -1.8727 15.4701 3.6612 -1.6536 -13.5631 -3.7557 0.0000 -0.0000 0.0000 -25.7594 -5.7743 -1.3711 4.5637 28.8253 -0.3849 2.0626 -17.7124 -2.2812 0.0000 -0.0298 0.0000 
0.0602 8.4355 0.1615 -9.5539 -6.5346 1.4772 0.0000 -0.0000 0.0000 24.6915 0.5244 -0.6474 9.0044 22.8464 5.8984 -0.0742 -17.2053 -2.6610 0.0000 -0.0660 0.0000 0.0000 -0.0000 0.0000 -0.3272 3.9054 -0.0685 -0.6639 7.8112 -0.0687 5.4055 0.5440 -1.9523 -76.2052 4.7786 -13.1756 24.6089 26.0591 3.5620 20.3128 -9.4432 -23.2917 28.0787 5.0824 13.2254 -7.5369 23.2622 -11.8645 -5.4455 -4.5942 -1.7910 4.4535 -7.7718 -2.1238 4.4535 -7.7718 -2.1238 14.9059 -1.3655 -0.5236 -0.2881 1.1545 1.5105 46.6220 -6.9325 13.3506 -16.5011 18.7593 -0.6034 -11.3301 11.2563 15.6085 -40.8254 2.0353 -11.4687 -1.8727 15.4701 3.6611 -1.6536 -13.5631 -3.7557 0.0000 -0.0000 0.0000 -25.0599 -5.8420 -1.2692 5.1486 28.8273 -0.1907 2.3923 -17.4045 -2.3808 -0.0000 -0.0254 -0.0000 
0.0792 8.4353 0.1606 -10.8775 -6.6343 1.3382 0.0000 -0.0000 0.0000 25.6429 0.7338 -0.6169 9.7153 22.7393 6.4595 -0.2136 -17.3829 -2.8717 0.0000 -0.0654 -0.0000 0.0000 -0.0000 0.0000 -0.8151 3.8258 -0.0270 -1.6384 7.6527 -0.0250 5.8835 0.5417 -2.1379 -75.7025 5.4813 -13.9191 24.5619 26.0202 3.5422 20.7831 -9.4287 -23.6076 28.0817 5.0739 13.2271 -7.5597 23.2780 -11.8848 -5.4512 -4.5877 -1.7957 4.9519 -7.4722 -2.3028 4.9519 -7.4723 -2.3028 16.6419 -1.0313 -0.4442 -0.3562 1.1303 1.4833 48.0287 -7.6435 13.1441 -17.2154 19.4472 -0.8241 -10.7004 10.0650 16.9707 -40.8254 2.0353 -11.4687 -1.8727 15.4701 3.6611 -1.6536 -13.5631 -3.7557 0.0000 -0.0000 0.0000 -24.3786 -5.9075 -1.1627 5.7465 28.7955 0.0220 2.6766 -17.0872 -2.4687 -0.0000 -0.0210 -0.0000 
0.0980 8.4346 0.1595 -12.2791 -6.7584 1.2009 0.0000 -0.0000 0.0000 26.6263 0.9643 -0.5645 10.4135 22.6322 7.0066 -0.3034 -17.5700 -3.0986 -0.0000 -0.0669 0.0000 0.0000 -0.0000 0.0000 -1.3141 3.7425 0.0182 -2.6346 7.4871 0.0270 6.3308 0.5413 -2.3016 -75.2003 6.1666 -14.7249 24.5359 25.9986 3.5313 21.2958 -9.4144 -23.9736 28.0846 5.0433 13.2321 -7.5297 23.2571 -11.8581 -5.4390 -4.6018 -1.7857 5.4348 -7.1693 -2.4494 5.4348 -7.1692 -2.4493 18.3524 -0.6265 -0.3469 -0.4164 1.1089 1.4609 50.5259 -8.5169 12.4585 -18.2689 20.4467 -1.1643 -9.1590 8.9329 18.7658 -40.8254 2.0354 -11.4687 -1.8727 15.4701 3.6612 -1.6536 -13.5631 -3.7558 0.0000 -0.0000 0.0000 -23.6724 -5.9776 -1.0418 6.3251 28.7822 0.2033 3.0208 -16.7617 -2.5559 0.0000 -0.0166 0.0000 
0.1162 8.4328 0.1584 -13.8706 -6.9422 1.0671 0.0000 -0.0000 0.0000 27.6882 1.2518 -0.4594 11.0884 22.5532 7.5273 -0.2735 -17.7938 -3.3619 -0.0000 -0.0659 -0.0000 0.0000 -0.0000 0.0000 -1.8401 3.6501 0.0712 -3.6840 7.3040 0.0939 6.7030 0.5406 -2.4119 -74.6619 6.7892 -15.6810 24.5608 26.0192 3.5417 21.9113 -9.4002 -24.4625 28.0823 5.0407 13.2324 -7.4404 23.1949 -11.7788 -5.4134 -4.6314 -1.7650 5.8807 -6.8575 -2.5244 5.8808 -6.8576 -2.5244 20.0015 -0.0466 -0.2256 -0.4574 1.0954 1.4502 53.9320 -8.9615 10.4444 -19.2247 21.3376 -1.4880 -5.4646 9.8133 18.9579 -40.8254 2.0354 -11.4687 -1.8728 15.4701 3.6611 -1.6535 -13.5631 -3.7557 0.0000 -0.0000 0.0000 -22.9049 -6.0550 -0.8947 6.8624 28.8276 0.3163 3.5148 -16.4252 -2.6529 -0.0000 -0.0124 -0.0000 
0.1332 8.4290 0.1572 -15.7755 -7.2247 0.9387 0.0000 -0.0000 0.0000 28.8802 1.6322 -0.2644 11.7284 22.5348 8.0090 -0.0446 -18.0828 -3.6868 -0.0000 -0.0646 0.0000 0.0000 -0.0000 0.0000 -2.4108 3.5432 0.1368 -4.8215 7.0928 0.1845 6.9512 0.5360 -2.4344 -74.0674 7.3063 -16.8867 24.6697 26.1095 3.5878 22.6967 -9.3840 -25.1538 28.0803 5.1185 13.2205 -7.4702 23.2157 -11.8053 -5.4329 -4.6089 -1.7808 6.2662 -6.5318 -2.4851 6.2662 -6.5320 -2.4851 21.5519 0.8198 -0.0643 -0.4666 1.0948 1.4587 57.4557 -9.6425 7.9956 -19.7695 21.8384 -1.6787 -0.0886 11.9721 17.7061 -40.9514 2.0541 -11.2448 -1.9307 15.4134 3.6116 -1.6536 -13.5632 -3.7557 0.0000 -0.0000 0.0000 -22.0379 -6.1422 -0.7015 7.3287 28.9770 0.3153 4.2574 -16.0746 -2.7687 0.0000 -0.0086 -0.0000 
